<mxfile host="app.diagrams.net" modified="2023-07-28T05:22:08.043Z" agent="Mozilla/5.0 (Windows NT 10.0; Win64; x64) AppleWebKit/537.36 (KHTML, like Gecko) Chrome/114.0.0.0 Safari/537.36" etag="JaOxfknfpxn61jX2Bu5b" version="21.6.2" type="github">
  <diagram name="第 1 页" id="h4Je9ntjCZEkH3LW6IeI">
    <mxGraphModel dx="1434" dy="764" grid="1" gridSize="11" guides="1" tooltips="1" connect="1" arrows="1" fold="1" page="1" pageScale="1" pageWidth="900" pageHeight="1600" math="0" shadow="0">
      <root>
        <mxCell id="0" />
        <mxCell id="1" parent="0" />
        <mxCell id="K-YooQLs9-meU3j8jbvG-1" value="&lt;font style=&quot;font-size: 18px;&quot;&gt;Configuration import&lt;/font&gt;" style="rounded=0;whiteSpace=wrap;html=1;" vertex="1" parent="1">
          <mxGeometry x="235" y="40" width="330" height="90" as="geometry" />
        </mxCell>
        <mxCell id="K-YooQLs9-meU3j8jbvG-2" value="&lt;font style=&quot;font-size: 20px;&quot;&gt;Settings Backup&lt;/font&gt;" style="rounded=0;whiteSpace=wrap;html=1;" vertex="1" parent="1">
          <mxGeometry x="30" y="165" width="157" height="50" as="geometry" />
        </mxCell>
        <mxCell id="K-YooQLs9-meU3j8jbvG-3" value="&lt;font style=&quot;font-size: 20px;&quot;&gt;Settings Restore&lt;/font&gt;" style="rounded=0;whiteSpace=wrap;html=1;" vertex="1" parent="1">
          <mxGeometry x="195" y="165" width="165" height="50" as="geometry" />
        </mxCell>
        <mxCell id="K-YooQLs9-meU3j8jbvG-4" value="&lt;font style=&quot;font-size: 20px;&quot;&gt;Settings Persist Restore&lt;/font&gt;" style="rounded=0;whiteSpace=wrap;html=1;" vertex="1" parent="1">
          <mxGeometry x="396" y="165" width="273" height="50" as="geometry" />
        </mxCell>
        <mxCell id="K-YooQLs9-meU3j8jbvG-5" value="" style="endArrow=classic;html=1;rounded=0;exitX=0.5;exitY=1;exitDx=0;exitDy=0;entryX=0.5;entryY=0;entryDx=0;entryDy=0;" edge="1" parent="1" source="K-YooQLs9-meU3j8jbvG-1" target="K-YooQLs9-meU3j8jbvG-2">
          <mxGeometry width="50" height="50" relative="1" as="geometry">
            <mxPoint x="390" y="420" as="sourcePoint" />
            <mxPoint x="440" y="370" as="targetPoint" />
          </mxGeometry>
        </mxCell>
        <mxCell id="K-YooQLs9-meU3j8jbvG-6" value="" style="endArrow=classic;html=1;rounded=0;exitX=0.5;exitY=1;exitDx=0;exitDy=0;entryX=0.5;entryY=0;entryDx=0;entryDy=0;" edge="1" parent="1" source="K-YooQLs9-meU3j8jbvG-1" target="K-YooQLs9-meU3j8jbvG-3">
          <mxGeometry width="50" height="50" relative="1" as="geometry">
            <mxPoint x="390" y="420" as="sourcePoint" />
            <mxPoint x="440" y="370" as="targetPoint" />
          </mxGeometry>
        </mxCell>
        <mxCell id="K-YooQLs9-meU3j8jbvG-7" value="" style="endArrow=classic;html=1;rounded=0;entryX=0.5;entryY=0;entryDx=0;entryDy=0;" edge="1" parent="1" target="K-YooQLs9-meU3j8jbvG-4">
          <mxGeometry width="50" height="50" relative="1" as="geometry">
            <mxPoint x="400" y="130" as="sourcePoint" />
            <mxPoint x="530" y="320" as="targetPoint" />
          </mxGeometry>
        </mxCell>
        <mxCell id="K-YooQLs9-meU3j8jbvG-8" value="&lt;font style=&quot;font-size: 16px;&quot;&gt;Configuration import enabled-disabled and Reset Password&lt;/font&gt;" style="rounded=0;whiteSpace=wrap;html=1;" vertex="1" parent="1">
          <mxGeometry x="1199" y="180" width="330" height="50" as="geometry" />
        </mxCell>
        <mxCell id="K-YooQLs9-meU3j8jbvG-9" value="" style="endArrow=classic;html=1;rounded=0;entryX=0.5;entryY=0;entryDx=0;entryDy=0;" edge="1" parent="1" target="K-YooQLs9-meU3j8jbvG-8">
          <mxGeometry width="50" height="50" relative="1" as="geometry">
            <mxPoint x="400" y="130" as="sourcePoint" />
            <mxPoint x="440" y="370" as="targetPoint" />
          </mxGeometry>
        </mxCell>
        <mxCell id="K-YooQLs9-meU3j8jbvG-10" value="&lt;font style=&quot;font-size: 20px;&quot;&gt;&lt;br&gt;Check &quot;Configuration import&quot; is enabled&lt;br&gt;&amp;nbsp;&lt;/font&gt;" style="rounded=0;whiteSpace=wrap;html=1;" vertex="1" parent="1">
          <mxGeometry x="30" y="260" width="509" height="40" as="geometry" />
        </mxCell>
        <mxCell id="K-YooQLs9-meU3j8jbvG-11" value="&lt;font style=&quot;font-size: 20px;&quot;&gt;show dialog&amp;nbsp;&lt;br&gt;&quot;Please enableConfiguration import&quot;&lt;br&gt;&lt;/font&gt;" style="rounded=0;whiteSpace=wrap;html=1;" vertex="1" parent="1">
          <mxGeometry x="627" y="230" width="374" height="100" as="geometry" />
        </mxCell>
        <mxCell id="K-YooQLs9-meU3j8jbvG-12" value="" style="endArrow=classic;html=1;rounded=0;entryX=0;entryY=0.5;entryDx=0;entryDy=0;exitX=1;exitY=0.5;exitDx=0;exitDy=0;" edge="1" parent="1" source="K-YooQLs9-meU3j8jbvG-10" target="K-YooQLs9-meU3j8jbvG-11">
          <mxGeometry width="50" height="50" relative="1" as="geometry">
            <mxPoint x="330" y="350" as="sourcePoint" />
            <mxPoint x="440" y="370" as="targetPoint" />
          </mxGeometry>
        </mxCell>
        <mxCell id="K-YooQLs9-meU3j8jbvG-13" value="not Enabled" style="text;html=1;strokeColor=none;fillColor=none;align=center;verticalAlign=middle;whiteSpace=wrap;rounded=0;" vertex="1" parent="1">
          <mxGeometry x="506" y="240" width="158" height="30" as="geometry" />
        </mxCell>
        <mxCell id="K-YooQLs9-meU3j8jbvG-14" value="" style="endArrow=classic;html=1;rounded=0;exitX=0.433;exitY=1.02;exitDx=0;exitDy=0;exitPerimeter=0;" edge="1" parent="1" source="K-YooQLs9-meU3j8jbvG-2">
          <mxGeometry width="50" height="50" relative="1" as="geometry">
            <mxPoint x="390" y="410" as="sourcePoint" />
            <mxPoint x="98" y="264" as="targetPoint" />
          </mxGeometry>
        </mxCell>
        <mxCell id="K-YooQLs9-meU3j8jbvG-15" value="" style="endArrow=classic;html=1;rounded=0;exitX=0.42;exitY=1.02;exitDx=0;exitDy=0;exitPerimeter=0;fillColor=#dae8fc;strokeColor=#6c8ebf;" edge="1" parent="1" source="K-YooQLs9-meU3j8jbvG-3">
          <mxGeometry width="50" height="50" relative="1" as="geometry">
            <mxPoint x="390" y="410" as="sourcePoint" />
            <mxPoint x="264" y="264" as="targetPoint" />
          </mxGeometry>
        </mxCell>
        <mxCell id="K-YooQLs9-meU3j8jbvG-16" value="" style="endArrow=classic;html=1;rounded=0;exitX=0.418;exitY=1.06;exitDx=0;exitDy=0;exitPerimeter=0;fillColor=#f8cecc;strokeColor=#b85450;entryX=0.026;entryY=0.8;entryDx=0;entryDy=0;entryPerimeter=0;" edge="1" parent="1" source="K-YooQLs9-meU3j8jbvG-4" target="K-YooQLs9-meU3j8jbvG-13">
          <mxGeometry width="50" height="50" relative="1" as="geometry">
            <mxPoint x="290" y="410" as="sourcePoint" />
            <mxPoint x="510" y="253" as="targetPoint" />
          </mxGeometry>
        </mxCell>
        <mxCell id="K-YooQLs9-meU3j8jbvG-17" value="" style="endArrow=classic;html=1;rounded=0;exitX=0.134;exitY=0.975;exitDx=0;exitDy=0;exitPerimeter=0;entryX=0.379;entryY=0.033;entryDx=0;entryDy=0;entryPerimeter=0;" edge="1" parent="1" source="K-YooQLs9-meU3j8jbvG-10" target="K-YooQLs9-meU3j8jbvG-23">
          <mxGeometry width="50" height="50" relative="1" as="geometry">
            <mxPoint x="390" y="410" as="sourcePoint" />
            <mxPoint x="67" y="360" as="targetPoint" />
          </mxGeometry>
        </mxCell>
        <mxCell id="K-YooQLs9-meU3j8jbvG-18" value="" style="endArrow=classic;html=1;rounded=0;exitX=0.558;exitY=0.95;exitDx=0;exitDy=0;exitPerimeter=0;fillColor=#dae8fc;strokeColor=#6c8ebf;" edge="1" parent="1" source="K-YooQLs9-meU3j8jbvG-10">
          <mxGeometry width="50" height="50" relative="1" as="geometry">
            <mxPoint x="300" y="430" as="sourcePoint" />
            <mxPoint x="314" y="352" as="targetPoint" />
          </mxGeometry>
        </mxCell>
        <mxCell id="K-YooQLs9-meU3j8jbvG-19" value="" style="endArrow=classic;html=1;rounded=0;exitX=0.836;exitY=1;exitDx=0;exitDy=0;exitPerimeter=0;fillColor=#f8cecc;strokeColor=#b85450;entryX=0.775;entryY=0.038;entryDx=0;entryDy=0;entryPerimeter=0;" edge="1" parent="1" source="K-YooQLs9-meU3j8jbvG-10" target="K-YooQLs9-meU3j8jbvG-24">
          <mxGeometry width="50" height="50" relative="1" as="geometry">
            <mxPoint x="310" y="410" as="sourcePoint" />
            <mxPoint x="456" y="363" as="targetPoint" />
          </mxGeometry>
        </mxCell>
        <mxCell id="K-YooQLs9-meU3j8jbvG-23" value="&lt;font style=&quot;font-size: 17px;&quot;&gt;show app and click export to&lt;br&gt;/sdcard/export&lt;/font&gt;" style="rounded=0;whiteSpace=wrap;html=1;" vertex="1" parent="1">
          <mxGeometry x="10" y="360" width="232" height="91" as="geometry" />
        </mxCell>
        <mxCell id="K-YooQLs9-meU3j8jbvG-24" value="&lt;font style=&quot;font-size: 20px;&quot;&gt;show dialog&lt;br&gt;&quot;Detecting zip&quot;&lt;/font&gt;" style="rounded=0;whiteSpace=wrap;html=1;" vertex="1" parent="1">
          <mxGeometry x="250" y="352" width="267" height="79" as="geometry" />
        </mxCell>
        <mxCell id="K-YooQLs9-meU3j8jbvG-25" value="" style="endArrow=classic;html=1;rounded=0;exitX=0.992;exitY=0.367;exitDx=0;exitDy=0;exitPerimeter=0;entryX=0;entryY=0.5;entryDx=0;entryDy=0;" edge="1" parent="1" source="K-YooQLs9-meU3j8jbvG-24" target="K-YooQLs9-meU3j8jbvG-26">
          <mxGeometry width="50" height="50" relative="1" as="geometry">
            <mxPoint x="390" y="410" as="sourcePoint" />
            <mxPoint x="440" y="382" as="targetPoint" />
          </mxGeometry>
        </mxCell>
        <mxCell id="K-YooQLs9-meU3j8jbvG-26" value="&lt;font style=&quot;font-size: 20px;&quot;&gt;show dialog&amp;nbsp;&lt;br style=&quot;border-color: var(--border-color);&quot;&gt;&quot;Zip not found&quot;&lt;/font&gt;" style="rounded=0;whiteSpace=wrap;html=1;" vertex="1" parent="1">
          <mxGeometry x="669" y="340" width="308" height="80" as="geometry" />
        </mxCell>
        <mxCell id="K-YooQLs9-meU3j8jbvG-27" value="if not detected" style="text;html=1;strokeColor=none;fillColor=none;align=center;verticalAlign=middle;whiteSpace=wrap;rounded=0;" vertex="1" parent="1">
          <mxGeometry x="482.5" y="315" width="122.5" height="30" as="geometry" />
        </mxCell>
        <mxCell id="K-YooQLs9-meU3j8jbvG-28" value="&lt;font style=&quot;font-size: 15px;&quot;&gt;show dialog&amp;nbsp;&lt;br&gt;&quot;Importing.......&quot;&lt;/font&gt;" style="rounded=0;whiteSpace=wrap;html=1;" vertex="1" parent="1">
          <mxGeometry x="195" y="540" width="360" height="90" as="geometry" />
        </mxCell>
        <mxCell id="K-YooQLs9-meU3j8jbvG-32" value="if detected" style="text;html=1;strokeColor=none;fillColor=none;align=center;verticalAlign=middle;whiteSpace=wrap;rounded=0;" vertex="1" parent="1">
          <mxGeometry x="427" y="473" width="90" height="20" as="geometry" />
        </mxCell>
        <mxCell id="K-YooQLs9-meU3j8jbvG-34" value="" style="endArrow=classic;html=1;rounded=0;exitX=0.472;exitY=1;exitDx=0;exitDy=0;exitPerimeter=0;entryX=0.459;entryY=-0.025;entryDx=0;entryDy=0;entryPerimeter=0;" edge="1" parent="1" source="K-YooQLs9-meU3j8jbvG-28" target="K-YooQLs9-meU3j8jbvG-35">
          <mxGeometry width="50" height="50" relative="1" as="geometry">
            <mxPoint x="390" y="410" as="sourcePoint" />
            <mxPoint x="306" y="610" as="targetPoint" />
          </mxGeometry>
        </mxCell>
        <mxCell id="K-YooQLs9-meU3j8jbvG-35" value="&lt;font style=&quot;font-size: 15px;&quot;&gt;show dialog&amp;nbsp;&lt;br style=&quot;border-color: var(--border-color);&quot;&gt;&quot;Ask for reboot&quot;&lt;/font&gt;" style="rounded=0;whiteSpace=wrap;html=1;" vertex="1" parent="1">
          <mxGeometry x="195" y="748" width="370" height="80" as="geometry" />
        </mxCell>
        <mxCell id="K-YooQLs9-meU3j8jbvG-39" value="&lt;font style=&quot;font-size: 15px;&quot;&gt;Check if password exist&lt;/font&gt;" style="rounded=0;whiteSpace=wrap;html=1;" vertex="1" parent="1">
          <mxGeometry x="1287" y="315" width="187" height="60" as="geometry" />
        </mxCell>
        <mxCell id="K-YooQLs9-meU3j8jbvG-42" value="" style="endArrow=classic;html=1;rounded=0;exitX=0.5;exitY=1;exitDx=0;exitDy=0;entryX=0.406;entryY=0.017;entryDx=0;entryDy=0;entryPerimeter=0;" edge="1" parent="1" source="K-YooQLs9-meU3j8jbvG-8" target="K-YooQLs9-meU3j8jbvG-39">
          <mxGeometry width="50" height="50" relative="1" as="geometry">
            <mxPoint x="690" y="320" as="sourcePoint" />
            <mxPoint x="740" y="270" as="targetPoint" />
            <Array as="points" />
          </mxGeometry>
        </mxCell>
        <mxCell id="K-YooQLs9-meU3j8jbvG-44" value="" style="endArrow=classic;html=1;rounded=0;exitX=0.388;exitY=1;exitDx=0;exitDy=0;exitPerimeter=0;" edge="1" parent="1" source="K-YooQLs9-meU3j8jbvG-39" target="K-YooQLs9-meU3j8jbvG-46">
          <mxGeometry width="50" height="50" relative="1" as="geometry">
            <mxPoint x="740" y="500" as="sourcePoint" />
            <mxPoint x="650" y="430" as="targetPoint" />
          </mxGeometry>
        </mxCell>
        <mxCell id="K-YooQLs9-meU3j8jbvG-45" value="" style="endArrow=classic;html=1;rounded=0;entryX=0.5;entryY=0;entryDx=0;entryDy=0;exitX=0.388;exitY=1.017;exitDx=0;exitDy=0;exitPerimeter=0;" edge="1" parent="1" source="K-YooQLs9-meU3j8jbvG-39" target="K-YooQLs9-meU3j8jbvG-47">
          <mxGeometry width="50" height="50" relative="1" as="geometry">
            <mxPoint x="700" y="370" as="sourcePoint" />
            <mxPoint x="740" y="430" as="targetPoint" />
          </mxGeometry>
        </mxCell>
        <mxCell id="K-YooQLs9-meU3j8jbvG-46" value="&lt;font style=&quot;font-size: 15px;&quot;&gt;show dialog to &lt;br&gt;set password&lt;/font&gt;" style="rounded=0;whiteSpace=wrap;html=1;" vertex="1" parent="1">
          <mxGeometry x="979" y="440" width="199" height="110" as="geometry" />
        </mxCell>
        <mxCell id="K-YooQLs9-meU3j8jbvG-47" value="&lt;font style=&quot;font-size: 15px;&quot;&gt;show dialog&lt;br&gt;include&lt;br&gt;1.&quot;show Configuration import Enable/Disable Status&quot;&lt;br&gt;2.&quot;resetPassword Button&quot;&lt;br&gt;3.&quot;Enable or Disable button&quot;&lt;/font&gt;" style="rounded=0;whiteSpace=wrap;html=1;" vertex="1" parent="1">
          <mxGeometry x="1298" y="451" width="423.5" height="110" as="geometry" />
        </mxCell>
        <mxCell id="K-YooQLs9-meU3j8jbvG-48" value="&lt;font style=&quot;font-size: 15px;&quot;&gt;no&lt;/font&gt;" style="text;html=1;strokeColor=none;fillColor=none;align=center;verticalAlign=middle;whiteSpace=wrap;rounded=0;" vertex="1" parent="1">
          <mxGeometry x="1518" y="382" width="85" height="38" as="geometry" />
        </mxCell>
        <mxCell id="K-YooQLs9-meU3j8jbvG-49" value="&lt;font style=&quot;font-size: 15px;&quot;&gt;Yes&lt;/font&gt;" style="text;html=1;strokeColor=none;fillColor=none;align=center;verticalAlign=middle;whiteSpace=wrap;rounded=0;" vertex="1" parent="1">
          <mxGeometry x="1099" y="372" width="79" height="48" as="geometry" />
        </mxCell>
        <mxCell id="K-YooQLs9-meU3j8jbvG-51" value="&lt;font style=&quot;font-size: 16px;&quot;&gt;show dialog&lt;br&gt;&quot;ask for password&quot;&lt;/font&gt;" style="rounded=0;whiteSpace=wrap;html=1;" vertex="1" parent="1">
          <mxGeometry x="1342" y="687.5" width="308" height="88" as="geometry" />
        </mxCell>
        <mxCell id="K-YooQLs9-meU3j8jbvG-56" value="click resetPasword" style="text;html=1;strokeColor=none;fillColor=none;align=center;verticalAlign=middle;whiteSpace=wrap;rounded=0;" vertex="1" parent="1">
          <mxGeometry x="1067" y="600" width="143" height="30" as="geometry" />
        </mxCell>
        <mxCell id="K-YooQLs9-meU3j8jbvG-57" value="&lt;font style=&quot;font-size: 15px;&quot;&gt;click&amp;nbsp; Enable or Disable button&lt;/font&gt;" style="text;html=1;strokeColor=none;fillColor=none;align=center;verticalAlign=middle;whiteSpace=wrap;rounded=0;" vertex="1" parent="1">
          <mxGeometry x="1595" y="616" width="209" height="30" as="geometry" />
        </mxCell>
        <mxCell id="K-YooQLs9-meU3j8jbvG-59" value="" style="endArrow=classic;html=1;rounded=0;exitX=0;exitY=0.5;exitDx=0;exitDy=0;entryX=1;entryY=0.5;entryDx=0;entryDy=0;" edge="1" parent="1" source="K-YooQLs9-meU3j8jbvG-51" target="K-YooQLs9-meU3j8jbvG-60">
          <mxGeometry width="50" height="50" relative="1" as="geometry">
            <mxPoint x="528" y="677" as="sourcePoint" />
            <mxPoint x="792" y="682" as="targetPoint" />
          </mxGeometry>
        </mxCell>
        <mxCell id="K-YooQLs9-meU3j8jbvG-60" value="&lt;font style=&quot;font-size: 15px;&quot;&gt;show toast&lt;br&gt;&quot;Password Error&quot;&lt;/font&gt;" style="rounded=0;whiteSpace=wrap;html=1;" vertex="1" parent="1">
          <mxGeometry x="847" y="693" width="275" height="77" as="geometry" />
        </mxCell>
        <mxCell id="K-YooQLs9-meU3j8jbvG-61" value="" style="endArrow=classic;html=1;rounded=0;entryX=0.75;entryY=0;entryDx=0;entryDy=0;" edge="1" parent="1" target="K-YooQLs9-meU3j8jbvG-62">
          <mxGeometry width="50" height="50" relative="1" as="geometry">
            <mxPoint x="1398" y="770" as="sourcePoint" />
            <mxPoint x="979" y="792" as="targetPoint" />
          </mxGeometry>
        </mxCell>
        <mxCell id="K-YooQLs9-meU3j8jbvG-62" value="&lt;font style=&quot;font-size: 17px;&quot;&gt;show resetpassword dialog&lt;/font&gt;" style="rounded=0;whiteSpace=wrap;html=1;" vertex="1" parent="1">
          <mxGeometry x="1232" y="880" width="221" height="99" as="geometry" />
        </mxCell>
        <mxCell id="K-YooQLs9-meU3j8jbvG-63" value="" style="endArrow=classic;html=1;rounded=0;exitX=0.75;exitY=1;exitDx=0;exitDy=0;entryX=0.443;entryY=0.02;entryDx=0;entryDy=0;entryPerimeter=0;fillColor=#e1d5e7;strokeColor=#9673a6;" edge="1" parent="1" source="K-YooQLs9-meU3j8jbvG-51" target="K-YooQLs9-meU3j8jbvG-64">
          <mxGeometry width="50" height="50" relative="1" as="geometry">
            <mxPoint x="528" y="677" as="sourcePoint" />
            <mxPoint x="1122" y="781" as="targetPoint" />
          </mxGeometry>
        </mxCell>
        <mxCell id="K-YooQLs9-meU3j8jbvG-64" value="&lt;font style=&quot;font-size: 17px;&quot;&gt;show toast&lt;br style=&quot;border-color: var(--border-color);&quot;&gt;&quot;Password Correct Switch to&lt;br&gt;Enabled(Disabled)&quot;&lt;/font&gt;" style="rounded=0;whiteSpace=wrap;html=1;" vertex="1" parent="1">
          <mxGeometry x="1463" y="880" width="253" height="99" as="geometry" />
        </mxCell>
        <mxCell id="K-YooQLs9-meU3j8jbvG-65" value="" style="endArrow=classic;html=1;rounded=0;entryX=0.731;entryY=0.028;entryDx=0;entryDy=0;fillColor=#e1d5e7;strokeColor=#9673a6;exitX=0.638;exitY=1.009;exitDx=0;exitDy=0;exitPerimeter=0;entryPerimeter=0;" edge="1" parent="1" source="K-YooQLs9-meU3j8jbvG-47" target="K-YooQLs9-meU3j8jbvG-51">
          <mxGeometry width="50" height="50" relative="1" as="geometry">
            <mxPoint x="1364" y="561" as="sourcePoint" />
            <mxPoint x="1414" y="594" as="targetPoint" />
          </mxGeometry>
        </mxCell>
        <mxCell id="K-YooQLs9-meU3j8jbvG-67" value="is Enabled" style="text;html=1;strokeColor=none;fillColor=none;align=center;verticalAlign=middle;whiteSpace=wrap;rounded=0;" vertex="1" parent="1">
          <mxGeometry x="360" y="310" width="60" height="30" as="geometry" />
        </mxCell>
        <mxCell id="K-YooQLs9-meU3j8jbvG-69" value="" style="endArrow=classic;html=1;rounded=0;entryX=0.483;entryY=0.011;entryDx=0;entryDy=0;entryPerimeter=0;" edge="1" parent="1" target="K-YooQLs9-meU3j8jbvG-28">
          <mxGeometry width="50" height="50" relative="1" as="geometry">
            <mxPoint x="369" y="429" as="sourcePoint" />
            <mxPoint x="644" y="495" as="targetPoint" />
          </mxGeometry>
        </mxCell>
        <mxCell id="K-YooQLs9-meU3j8jbvG-70" value="" style="endArrow=classic;html=1;rounded=0;exitX=0.25;exitY=1;exitDx=0;exitDy=0;" edge="1" parent="1" source="K-YooQLs9-meU3j8jbvG-47">
          <mxGeometry width="50" height="50" relative="1" as="geometry">
            <mxPoint x="1452" y="677" as="sourcePoint" />
            <mxPoint x="1404" y="693" as="targetPoint" />
          </mxGeometry>
        </mxCell>
      </root>
    </mxGraphModel>
  </diagram>
</mxfile>
